<?xml version="1.0" standalone="no"?><!DOCTYPE svg PUBLIC "-//W3C//DTD SVG 1.1//EN" "http://www.w3.org/Graphics/SVG/1.1/DTD/svg11.dtd"><svg t="1723600246321" class="icon" viewBox="0 0 1024 1024" version="1.1" xmlns="http://www.w3.org/2000/svg" p-id="11976" xmlns:xlink="http://www.w3.org/1999/xlink" width="200" height="200"><path d="M819.2 952.32H204.8c-73.216 0-133.12-59.904-133.12-133.12V204.8c0-73.216 59.904-133.12 133.12-133.12h614.4c73.216 0 133.12 59.904 133.12 133.12v614.4c0 73.216-59.904 133.12-133.12 133.12zM204.8 133.12c-39.424 0-71.68 32.256-71.68 71.68v614.4c0 39.424 32.256 71.68 71.68 71.68h614.4c39.424 0 71.68-32.256 71.68-71.68V204.8c0-39.424-32.256-71.68-71.68-71.68H204.8z" fill="#A32A1F" p-id="11977"></path><path d="M691.2 773.12H332.8c-16.896 0-30.72-13.824-30.72-30.72s13.824-30.72 30.72-30.72h358.4c16.896 0 30.72 13.824 30.72 30.72s-13.824 30.72-30.72 30.72z" fill="#A32A1F" p-id="11978"></path><path d="M330.752 672.768c-7.68 0-15.872-3.072-21.504-9.216-11.776-11.776-11.776-31.232 0-43.52l361.984-361.984c11.776-11.776 31.232-11.776 43.52 0 11.776 11.776 11.776 31.232 0 43.52l-361.984 361.984c-6.144 6.144-13.824 9.216-22.016 9.216z" fill="#E09527" p-id="11979"></path></svg>